<svg viewBox="0 0 400 300" xmlns="http://www.w3.org/2000/svg">
  <!-- Fondo - Pared -->
  <rect x="0" y="0" width="400" height="200" fill="#FFF9C4"/>
  
  <!-- Piso de madera -->
  <rect x="0" y="200" width="400" height="100" fill="#D7CCC8"/>
  
  <!-- Tablas de madera -->
  <rect x="0" y="200" width="80" height="100" fill="#BCAAA4"/>
  <rect x="80" y="200" width="80" height="100" fill="#D7CCC8"/>
  <rect x="160" y="200" width="80" height="100" fill="#BCAAA4"/>
  <rect x="240" y="200" width="80" height="100" fill="#D7CCC8"/>
  <rect x="320" y="200" width="80" height="100" fill="#BCAAA4"/>
  
  <!-- Líneas de las tablas -->
  <line x1="0" y1="200" x2="40" y2="300" stroke="#8D6E63" stroke-width="1" opacity="0.3"/>
  <line x1="80" y1="200" x2="120" y2="300" stroke="#8D6E63" stroke-width="1" opacity="0.3"/>
  <line x1="160" y1="200" x2="200" y2="300" stroke="#8D6E63" stroke-width="1" opacity="0.3"/>
  <line x1="240" y1="200" x2="280" y2="300" stroke="#8D6E63" stroke-width="1" opacity="0.3"/>
  <line x1="320" y1="200" x2="360" y2="300" stroke="#8D6E63" stroke-width="1" opacity="0.3"/>
  
  <!-- Ventana grande con vista al exterior -->
  <rect x="250" y="20" width="130" height="130" fill="#87CEEB" rx="5"/>
  <rect x="255" y="25" width="120" height="120" fill="#B0E0E6"/>
  
  <!-- Marco de ventana -->
  <line x1="315" y1="20" x2="315" y2="150" stroke="#8D6E63" stroke-width="5"/>
  <line x1="250" y1="85" x2="380" y2="85" stroke="#8D6E63" stroke-width="5"/>
  
  <!-- Paisaje en ventana -->
  <ellipse cx="280" cy="130" rx="25" ry="15" fill="#81C784"/>
  <ellipse cx="310" cy="135" rx="30" ry="18" fill="#66BB6A"/>
  <ellipse cx="350" cy="132" rx="28" ry="16" fill="#81C784"/>
  <circle cx="330" cy="50" r="18" fill="#FDD835"/>
  <ellipse cx="290" cy="70" rx="20" ry="12" fill="white" opacity="0.8"/>
  <ellipse cx="305" cy="68" rx="15" ry="10" fill="white" opacity="0.8"/>
  
  <!-- Recepción/Mostrador -->
  <rect x="30" y="140" width="100" height="50" fill="#8D6E63"/>
  <rect x="35" y="135" width="90" height="5" fill="#6D4C41"/>
  <rect x="40" y="145" width="80" height="35" fill="#A1887F"/>
  
  <!-- Computadora en recepción -->
  <rect x="55" y="150" width="25" height="18" fill="#424242" rx="1"/>
  <rect x="57" y="152" width="21" height="14" fill="#1976D2"/>
  <rect x="65" y="168" width="9" height="4" fill="#616161"/>
  <rect x="64" y="172" width="11" height="2" fill="#757575"/>
  
  <!-- Teléfono -->
  <rect x="90" y="157" width="15" height="8" fill="#00897B" rx="2"/>
  <rect x="92" y="159" width="11" height="4" fill="#B2DFDB"/>
  <circle cx="93" cy="161" r="1" fill="#004D40"/>
  <circle cx="96" cy="161" r="1" fill="#004D40"/>
  <circle cx="99" cy="161" r="1" fill="#004D40"/>
  <circle cx="102" cy="161" r="1" fill="#004D40"/>
  
  <!-- Archivero -->
  <rect x="135" y="155" width="35" height="45" fill="#78909C"/>
  <rect x="140" y="160" width="25" height="8" fill="#90A4AE"/>
  <rect x="140" y="172" width="25" height="8" fill="#90A4AE"/>
  <rect x="140" y="184" width="25" height="8" fill="#90A4AE"/>
  <circle cx="152.5" cy="164" r="1.5" fill="#37474F"/>
  <circle cx="152.5" cy="176" r="1.5" fill="#37474F"/>
  <circle cx="152.5" cy="188" r="1.5" fill="#37474F"/>
  
  <!-- Sofás de espera -->
  <!-- Sofá izquierdo -->
  <rect x="30" y="225" width="70" height="35" fill="#5C6BC0" rx="5"/>
  <rect x="35" y="220" width="60" height="12" fill="#7986CB" rx="3"/>
  <rect x="25" y="228" width="10" height="30" fill="#5C6BC0" rx="2"/>
  <rect x="100" y="228" width="10" height="30" fill="#5C6BC0" rx="2"/>
  
  <!-- Cojines decorativos -->
  <rect x="45" y="218" width="15" height="15" fill="#FF4081" rx="2" transform="rotate(-10 52.5 225.5)"/>
  <rect x="70" y="218" width="15" height="15" fill="#FF4081" rx="2" transform="rotate(10 77.5 225.5)"/>
  
  <!-- Sofá derecho -->
  <rect x="185" y="225" width="70" height="35" fill="#5C6BC0" rx="5"/>
  <rect x="190" y="220" width="60" height="12" fill="#7986CB" rx="3"/>
  <rect x="180" y="228" width="10" height="30" fill="#5C6BC0" rx="2"/>
  <rect x="255" y="228" width="10" height="30" fill="#5C6BC0" rx="2"/>
  
  <!-- Cojines -->
  <rect x="200" y="218" width="15" height="15" fill="#FFC107" rx="2" transform="rotate(-10 207.5 225.5)"/>
  <rect x="225" y="218" width="15" height="15" fill="#FFC107" rx="2" transform="rotate(10 232.5 225.5)"/>
  
  <!-- Mesa de centro -->
  <ellipse cx="145" cy="255" rx="40" ry="15" fill="#8D6E63"/>
  <ellipse cx="145" cy="252" rx="38" ry="13" fill="#A1887F"/>
  
  <!-- Revistas en la mesa -->
  <rect x="125" y="247" width="15" height="10" fill="#E91E63" rx="1" transform="rotate(-5 132.5 252)"/>
  <rect x="143" y="247" width="15" height="10" fill="#2196F3" rx="1" transform="rotate(8 150.5 252)"/>
  <rect x="155" y="248" width="15" height="10" fill="#4CAF50" rx="1" transform="rotate(-3 162.5 253)"/>
  
  <!-- Plantas decorativas grandes -->
  <!-- Planta 1 -->
  <ellipse cx="300" cy="240" rx="25" ry="35" fill="#4CAF50"/>
  <ellipse cx="290" cy="230" rx="20" ry="28" fill="#66BB6A"/>
  <ellipse cx="310" cy="235" rx="18" ry="30" fill="#81C784"/>
  <rect x="295" y="240" width="10" height="40" fill="#8D6E63"/>
  <ellipse cx="300" cy="280" rx="30" ry="10" fill="#6D4C41"/>
  <ellipse cx="300" cy="278" rx="28" ry="8" fill="#5D4037"/>
  
  <!-- Planta 2 -->
  <ellipse cx="360" cy="245" rx="20" ry="28" fill="#4CAF50"/>
  <ellipse cx="352" cy="238" rx="16" ry="22" fill="#66BB6A"/>
  <ellipse cx="368" cy="240" rx="15" ry="24" fill="#81C784"/>
  <rect x="357" y="245" width="8" height="35" fill="#8D6E63"/>
  <ellipse cx="361" cy="280" rx="25" ry="8" fill="#6D4C41"/>
  <ellipse cx="361" cy="278" rx="23" ry="6" fill="#5D4037"/>
  
  <!-- Cuadros decorativos en la pared -->
  <!-- Cuadro con huella -->
  <rect x="40" y="40" width="60" height="70" fill="white" stroke="#8D6E63" stroke-width="4" rx="2"/>
  <rect x="45" y="45" width="50" height="60" fill="#E8F5E9"/>
  <!-- Huella de perro -->
  <ellipse cx="70" cy="85" rx="8" ry="10" fill="#4CAF50" opacity="0.7"/>
  <ellipse cx="63" cy="75" rx="4" ry="5" fill="#4CAF50" opacity="0.7"/>
  <ellipse cx="70" cy="73" rx="4" ry="5" fill="#4CAF50" opacity="0.7"/>
  <ellipse cx="77" cy="75" rx="4" ry="5" fill="#4CAF50" opacity="0.7"/>
  <ellipse cx="73" cy="70" rx="3" ry="4" fill="#4CAF50" opacity="0.7"/>
  
  <!-- Cuadro con gato -->
  <rect x="120" y="40" width="60" height="70" fill="white" stroke="#8D6E63" stroke-width="4" rx="2"/>
  <rect x="125" y="45" width="50" height="60" fill="#FFF3E0"/>
  <!-- Silueta de gato -->
  <ellipse cx="150" cy="85" rx="10" ry="8" fill="#FF9800" opacity="0.7"/>
  <circle cx="150" cy="75" r="7" fill="#FF9800" opacity="0.7"/>
  <path d="M 145 70 L 142 62 L 147 68 Z" fill="#FF9800" opacity="0.7"/>
  <path d="M 155 70 L 158 62 L 153 68 Z" fill="#FF9800" opacity="0.7"/>
  
  <!-- Dispensador de agua para mascotas -->
  <ellipse cx="280" cy="280" rx="12" ry="5" fill="#B0BEC5"/>
  <rect x="268" y="265" width="24" height="15" fill="#42A5F5" rx="2"/>
  <ellipse cx="280" cy="265" rx="10" ry="3" fill="#1976D2"/>
  
  <!-- Reloj de pared -->
  <circle cx="210" cy="60" r="18" fill="white" stroke="#8D6E63" stroke-width="3"/>
  <circle cx="210" cy="60" r="2" fill="#424242"/>
  <line x1="210" y1="60" x2="210" y2="50" stroke="#424242" stroke-width="2"/>
  <line x1="210" y1="60" x2="217" y2="64" stroke="#F44336" stroke-width="1.5"/>
</svg>